<svg width="42" height="42" viewBox="0 0 42 42" fill="none" xmlns="http://www.w3.org/2000/svg">
<ellipse cx="21" cy="21" rx="21" ry="20" fill="white"/>
<path d="M21 0C9.40271 0 0 9.40271 0 21C0 32.5986 9.40271 42 21 42C32.5973 42 42 32.5986 42 21C41.9999 9.40271 32.5971 0 21 0ZM26.8825 36.998C26.7617 35.3547 26.6266 33.319 26.6186 32.4948C26.5662 31.8622 26.4978 30.2531 24.9702 29.2254C31.0352 28.7175 33.9214 25.3654 34.1288 20.9357C34.3021 18.4131 33.2993 16.1949 31.5183 14.4047C31.6089 12.4899 31.4605 10.2205 31.3372 9.22307C29.9696 8.82934 26.7803 10.5133 25.889 11.2338C24.0094 10.504 19.4092 10.2481 16.6136 11.2338C14.6317 9.83998 12.3755 8.97899 11.1457 9.21918C10.0104 11.7353 10.7402 14.1135 10.9619 14.397C9.49974 15.7331 7.46015 17.3777 8.01405 20.823C8.90258 25.8747 12.4568 28.5996 18.1793 29.2662C16.9587 29.5156 16.7526 30.4265 16.6502 30.8215C12.8072 32.407 11.7087 29.8425 11.223 29.1744C9.61003 27.178 8.16226 27.7569 8.07302 27.7883C7.98637 27.8197 7.92077 27.9457 7.93 28.0062C8.01131 28.4366 8.88946 28.8738 8.93271 28.9091C10.1231 29.7963 10.5642 31.3989 10.8358 31.8557C12.5433 34.6631 16.5124 33.4989 16.5504 33.5226C16.553 33.768 16.5229 35.8339 16.4993 37.4417C9.26229 35.465 3.93746 28.8631 3.93746 21C3.93746 11.5762 11.5762 3.93761 20.9999 3.93761C30.4235 3.93761 38.0624 11.5762 38.0624 21C38.0624 28.3539 33.4031 34.6 26.8825 36.998Z" fill="#1C3300"/>
</svg>
