<svg width="94" height="52" viewBox="0 0 94 52" fill="none" xmlns="http://www.w3.org/2000/svg">
<circle cx="68" cy="26" r="26" fill="white"/>
<path d="M81.6 26.0375C81.6 19.8313 77.4062 14.4188 71.3937 12.875C70.8187 12.725 70.2312 13.075 70.0875 13.65C69.9375 14.225 70.2875 14.8125 70.8625 14.9563C75.9187 16.25 79.45 20.8125 79.45 26.0375C79.45 30.6438 76.7062 34.725 72.6 36.5188L73.5937 34.2063C73.825 33.6625 73.575 33.0313 73.0312 32.7938C72.4875 32.5625 71.8562 32.8125 71.6187 33.3563L69.6812 37.8688C69.45 38.4125 69.7 39.0438 70.2437 39.2813L74.7562 41.2188C75.4312 41.4563 75.9937 41.0625 76.1687 40.6563C76.4 40.1125 76.15 39.4813 75.6062 39.2438L73.6437 38.4C78.425 36.2375 81.6 31.4375 81.6 26.0375V26.0375Z" fill="black"/>
<path d="M65.15 37.1187C60.0937 35.8187 56.5625 31.2625 56.5625 26.0375C56.5625 21.4937 59.2312 17.4625 63.2437 15.6312L62.3125 17.7937C62.0812 18.3375 62.3187 18.9937 62.875 19.2062C63.525 19.45 64.075 19.1562 64.2875 18.6437L66.225 14.125C66.4125 13.6875 66.4062 13.0312 65.6625 12.7125L61.15 10.775C60.6062 10.5437 59.975 10.7937 59.7375 11.3375C59.5062 11.8812 59.7562 12.5125 60.3 12.75L62.4 13.65C57.6 15.8187 54.4125 20.625 54.4125 26.0375C54.4125 32.2437 58.6125 37.65 64.6187 39.2C65.3437 39.3875 65.8 38.9125 65.925 38.425C66.0687 37.85 65.725 37.2687 65.15 37.1187V37.1187Z" fill="black"/>
<path d="M70.5375 30.0875C71.0875 29.5125 71.3625 28.7875 71.3625 27.925C71.3625 27.5312 71.2937 27.1687 71.1625 26.8312C71.0312 26.4937 70.8437 26.2062 70.6 25.9562C70.3562 25.7125 70.0375 25.5062 69.65 25.3312C69.4437 25.2437 69.0312 25.1187 68.4 24.9625V21.375C68.8062 21.4562 69.125 21.6312 69.3625 21.8937C69.5937 22.1562 69.75 22.5312 69.825 23.0187L71.1125 22.825C71 22.0375 70.675 21.4125 70.1312 20.9625C69.7062 20.6062 69.1312 20.3937 68.4062 20.325V19.7312H67.6687V20.325C66.8437 20.4062 66.2187 20.6375 65.8 21.0062C65.1687 21.5562 64.8562 22.275 64.8562 23.1625C64.8562 23.6625 64.9625 24.1062 65.1812 24.5C65.3937 24.8937 65.7 25.2 66.1 25.4187C66.6375 25.7187 67.1625 25.9187 67.675 26.0125V29.9812C67.1875 29.9312 66.7625 29.6812 66.4125 29.2375C66.1687 28.925 65.9937 28.4312 65.9 27.7625L64.6437 28C64.6875 28.6437 64.8562 29.1937 65.1375 29.6437C65.4187 30.0937 65.7562 30.4187 66.15 30.6187C66.5375 30.8187 67.05 30.9562 67.6687 31.0375V32.2812H68.4062V31.0187C69.2812 30.975 69.9937 30.6625 70.5375 30.0875ZM67.675 24.8062C67.1062 24.6375 66.7062 24.4062 66.4687 24.1187C66.2312 23.8312 66.1125 23.475 66.1125 23.05C66.1125 22.6187 66.25 22.25 66.5312 21.9375C66.8125 21.625 67.1937 21.4312 67.675 21.3562V24.8062ZM69.6062 29.3437C69.2875 29.7062 68.8875 29.9125 68.4062 29.975V26.1812C69.075 26.4 69.525 26.6437 69.75 26.9187C69.975 27.1937 70.0875 27.5562 70.0875 28.0125C70.0812 28.5375 69.925 28.9875 69.6062 29.3437V29.3437Z" fill="black"/>
<circle cx="26" cy="26" r="26" fill="white"/>
<path d="M28.8468 25.9692C28.8468 27.5467 27.568 28.8255 25.9905 28.8255C24.413 28.8255 23.1342 27.5467 23.1342 25.9692C23.1342 24.3917 24.413 23.1129 25.9905 23.1129C27.568 23.1129 28.8468 24.3917 28.8468 25.9692Z" fill="#2D5100"/>
<path d="M25.9894 32.5114C25.7511 32.5173 25.4702 32.5209 25.1882 32.5209C21.8566 32.5209 18.6436 32.0172 15.6202 31.0821L15.8489 31.1425C14.2477 30.6258 12.8599 29.8637 11.6522 28.8871L11.6771 28.9061C10.7419 28.2293 10.1126 27.1816 10.0059 25.9822L10.0048 25.9668C10.0048 24.0776 12.0753 22.2287 15.5526 21.0222C18.5298 20.0421 21.9562 19.4767 25.5141 19.4767C25.6788 19.4767 25.8436 19.4779 26.0083 19.4803H25.9834C26.1209 19.4779 26.2821 19.4767 26.4445 19.4767C29.9585 19.4767 33.3422 20.0326 36.5138 21.0613L36.2827 20.9962C37.8294 21.4987 39.1722 22.224 40.3514 23.1461L40.323 23.1247C41.2415 23.7719 41.8614 24.7887 41.9657 25.9538L41.9668 25.9692C41.9668 27.9319 39.651 29.9182 35.9188 31.1532C33.1182 32.0172 29.8981 32.515 26.5618 32.515C26.3603 32.515 26.16 32.5126 25.9597 32.509H25.9894V32.5114ZM25.9894 20.8492C25.8637 20.8468 25.7144 20.8468 25.5651 20.8468C22.1505 20.8468 18.8616 21.3825 15.7766 22.3745L16.003 22.3117C12.8054 23.427 11.3713 24.9523 11.3713 25.9704C11.3713 27.0287 12.9132 28.6963 16.2934 29.8507C18.9588 30.6767 22.0225 31.1532 25.1977 31.1532C25.4762 31.1532 25.7535 31.1496 26.0296 31.1425L25.9894 31.1437C26.1624 31.1473 26.3662 31.1496 26.5701 31.1496C29.7511 31.1496 32.8208 30.6756 35.7138 29.795L35.4922 29.853C39.0003 28.6868 40.6122 27.0193 40.6122 25.9656C40.4913 25.2095 40.0646 24.5719 39.4673 24.1701L39.4578 24.1642C38.4314 23.3653 37.2344 22.7218 35.9378 22.2987L35.8548 22.275C33.0483 21.3671 29.8187 20.8433 26.4682 20.8433C26.2999 20.8433 26.1328 20.8444 25.9656 20.8468H25.9905L25.9894 20.8492Z" fill="#2D5100"/>
<path d="M19.5088 40.2056C19.4898 40.2056 19.4673 40.2068 19.4459 40.2068C18.9091 40.2068 18.4053 40.0658 17.9704 39.8193L17.9858 39.8276C16.3526 38.8794 15.7837 36.163 16.4688 32.5493C17.2948 28.8421 18.6341 25.5639 20.432 22.5938L20.3502 22.7407C22.1268 19.5941 24.2732 16.9025 26.7799 14.5961L26.8036 14.5748C27.8975 13.5745 29.1775 12.7532 30.5808 12.1713L30.6673 12.1393C31.1496 11.907 31.7162 11.7719 32.3147 11.7719C32.9085 11.7719 33.4714 11.9058 33.9739 12.144L33.9502 12.1345C35.651 13.1135 36.2151 16.1167 35.4175 19.9639C34.5642 23.4803 33.2628 26.5772 31.5514 29.3967L31.6344 29.251C29.9135 32.368 27.8311 35.037 25.3932 37.3327L25.3766 37.3481C24.2412 38.3876 22.9079 39.2326 21.4406 39.8157L21.3529 39.8465C20.8077 40.061 20.1772 40.1926 19.5171 40.208H19.5099L19.5088 40.2056ZM20.9369 23.0833L21.5283 23.4246C19.8916 26.1268 18.6068 29.2628 17.8471 32.5979L17.8068 32.8113C17.1751 36.1404 17.7843 38.1422 18.6602 38.6495C18.8865 38.7704 19.1544 38.8403 19.4388 38.8403C19.4625 38.8403 19.4874 38.8403 19.5111 38.8391H19.5076C20.6394 38.8391 22.4208 38.1221 24.4806 36.3241C26.8225 34.1114 28.8113 31.5561 30.3734 28.7342L30.4539 28.5742C32.016 26.019 33.264 23.0596 34.0391 19.9141L34.0842 19.6984C34.8296 16.0741 34.1861 13.8554 33.2711 13.3244C32.9891 13.213 32.6619 13.149 32.3206 13.149C31.8892 13.149 31.4815 13.2521 31.1212 13.4335L31.1366 13.4264C29.8116 13.9775 28.6738 14.7135 27.6913 15.6142L27.6996 15.6071C25.2806 17.8364 23.2291 20.4154 21.6125 23.2729L21.5307 23.4293L20.9369 23.0833Z" fill="#2D5100"/>
<path d="M32.4711 40.2222C30.9233 40.2222 28.963 39.2895 26.9126 37.5247C24.3348 35.1745 22.1517 32.4498 20.4368 29.4252L20.3514 29.2628C18.6566 26.4788 17.328 23.248 16.5411 19.8109L16.4984 19.5917C16.3064 18.7514 16.1962 17.7878 16.1962 16.7982C16.1962 16.1736 16.24 15.5609 16.3242 14.96L16.3159 15.0287C16.4166 13.8459 17.0365 12.8266 17.9419 12.1855L17.9538 12.1772C19.6486 11.1935 22.5345 12.2056 25.4702 14.8178C27.8667 17.0862 29.9123 19.6924 31.536 22.5689L31.6214 22.7324C33.3138 25.4548 34.6519 28.6121 35.4637 31.9745L35.5088 32.1949C35.7019 33.0352 35.8134 34.0012 35.8134 34.992C35.8134 35.6758 35.7612 36.3466 35.6593 37.002L35.6688 36.9286C35.5467 38.1398 34.9055 39.1816 33.9751 39.8394L33.9621 39.8477C33.5496 40.0835 33.0566 40.2222 32.5316 40.2222C32.5102 40.2222 32.4889 40.2222 32.4676 40.221H32.4711V40.2222ZM21.5342 28.5801C23.2622 31.6272 25.347 34.2346 27.7814 36.4687L27.8051 36.49C30.3722 38.698 32.4083 39.1757 33.2901 38.6637C34.2062 38.1351 34.8771 35.9662 34.1837 32.4616C33.3517 29.0364 32.0658 26.0213 30.3686 23.2871L30.4456 23.4198C28.8113 20.509 26.8581 18.013 24.5814 15.8536L24.5671 15.8406C21.8009 13.3825 19.5597 12.8302 18.6436 13.3588C18.083 13.8151 17.7144 14.4871 17.6658 15.2468V15.2551C17.6006 15.7173 17.5639 16.2506 17.5639 16.7935C17.5639 17.6906 17.6658 18.5629 17.8578 19.402L17.8424 19.3238C18.64 22.8225 19.9129 25.9123 21.6136 28.7152L21.5354 28.5766L21.5342 28.5801Z" fill="#2D5100"/>
</svg>
