<svg width="32" height="32" viewBox="0 0 32 32" fill="none" xmlns="http://www.w3.org/2000/svg">
<path d="M15.9998 0V32C24.8366 32 32 24.8366 32 16.0002C32 7.16289 24.8366 0 15.9998 0Z" fill="#252F6B"/>
<path d="M15.9998 0C7.16343 0 0 7.16316 0 16C0 24.8363 7.16343 31.9997 15.9998 31.9997C24.8366 31.9997 24.8366 0 15.9998 0Z" fill="#273375"/>
<path d="M10.9729 24.5269L12.0519 23.1818L10.3851 23.4837L9.80677 21.8691L9.17822 23.4837L7.47647 23.1818L8.55798 24.4973L7.43506 25.8113L9.1466 25.5425L9.72388 27.1237L10.3527 25.5432L12.0984 25.8552L10.9729 24.5269Z" fill="#F3F4F5"/>
<path d="M23.7263 25.715L24.3382 24.9528L23.3933 25.1238L23.0657 24.209L22.7095 25.1238L21.7452 24.9528L22.358 25.6978L21.7219 26.4428L22.6916 26.2903L23.0187 27.1859L23.3749 26.2907L24.3642 26.4676L23.7263 25.715Z" fill="#F3F4F5"/>
<path d="M23.7263 8.87273L24.3382 8.11029L23.3933 8.28154L23.0657 7.36676L22.7095 8.28154L21.7452 8.11029L22.358 8.85578L21.7219 9.60032L22.6916 9.44798L23.0187 10.344L23.3749 9.44845L24.3642 9.62504L23.7263 8.87273Z" fill="#F3F4F5"/>
<path d="M27.6846 13.2296L28.296 12.4672L27.3516 12.6385L27.0239 11.7237L26.6678 12.6385L25.7029 12.4672L26.3158 13.2127L25.6797 13.9575L26.6493 13.8048L26.9764 14.701L27.3327 13.8054L28.322 13.982L27.6846 13.2296Z" fill="#F3F4F5"/>
<path d="M20.3024 15.1666L20.9143 14.4044L19.9694 14.5757L19.6417 13.6609L19.2856 14.5757L18.3215 14.4044L18.9341 15.1494L18.2982 15.8944L19.2679 15.742L19.595 16.6374L19.9512 15.7426L20.9406 15.9192L20.3024 15.1666Z" fill="#F3F4F5"/>
<path d="M3.36027 6.1958C3.10917 6.5194 2.86941 6.85164 2.64282 7.19395H4.35795L3.36027 6.1958Z" fill="#29337A"/>
<path d="M11.6227 16H13.164L11.6227 14.4587V16Z" fill="#29337A"/>
<path d="M6.51361 3.1167C6.1465 3.38753 5.79311 3.67478 5.45081 3.97514L6.51361 5.03747V3.1167Z" fill="#29337A"/>
<path d="M4.9718 16H6.51358V14.4582L4.9718 16Z" fill="#29337A"/>
<path d="M15.9998 0C14.4815 0 13.0147 0.215978 11.6227 0.611387V5.03749L16.0003 0.660095V0H15.9998Z" fill="#29337A"/>
<path d="M16.0002 14.5249V12.3035H13.7788L16.0002 14.5249Z" fill="#29337A"/>
<path d="M0.660163 16L4.3574 12.3035H0.434254C0.153083 13.4906 0 14.7272 0 16H0.660163Z" fill="#29337A"/>
<path d="M13.7773 7.19397H16.0002V4.97156L13.7773 7.19397Z" fill="#29337A"/>
<path d="M16.0002 14.9915V14.5249L13.7788 12.3035H16.0002V11.5079H12.5166L16.0002 14.9915Z" fill="white"/>
<path d="M4.35786 7.19397H2.64274C2.47148 7.45346 2.30874 7.71896 2.15234 7.98878H5.52173L3.52185 5.98944C3.46706 6.05767 3.41322 6.12665 3.35992 6.19556L4.35786 7.19397Z" fill="white"/>
<path d="M6.51351 14.4582V16H7.30859V13.2944L4.60315 16H4.97174L6.51351 14.4582Z" fill="white"/>
<path d="M11.6226 0.611145C11.3545 0.687214 11.0897 0.770038 10.8278 0.859213V6.20139L16.0002 1.02925V0.660664L11.6226 5.03725V0.611145Z" fill="white"/>
<path d="M6.48552 12.3035L6.51355 12.2755L7.28079 11.5082H0.6439C0.567358 11.7707 0.497369 12.0357 0.434204 12.3035H4.35735L0.660113 16H2.78882L6.48552 12.3035Z" fill="white"/>
<path d="M0.660156 16L4.35739 12.3035L0.660156 16Z" fill="white"/>
<path d="M16.0002 7.98909V7.19402H13.7773L16.0002 4.97161V2.84344L10.8544 7.98909H16.0002Z" fill="white"/>
<path d="M16.0002 4.97156L13.7772 7.19397L16.0002 4.97156Z" fill="white"/>
<path d="M6.51354 5.03781L5.45074 3.97548C5.07384 4.30671 4.71201 4.65531 4.36768 5.02065L6.51354 7.16652L6.53631 7.18976L7.30862 7.96207V2.56909C7.03832 2.74467 6.77228 2.92579 6.51381 3.11677V5.03781H6.51354Z" fill="white"/>
<path d="M11.6226 14.4587L13.1639 16H15.1946L10.8275 11.6332V16H11.6226V14.4587Z" fill="white"/>
<path d="M6.51355 7.16644L6.53632 7.18968L6.51355 7.16644Z" fill="#D32030"/>
<path d="M13.3115 12.3035L12.5167 11.5082H16.0002V7.98902H10.8544L10.8278 8.01604V7.98902H10.8544L16.0002 2.84364V1.02921L10.8275 6.20161V0.859436C9.57728 1.28666 8.39747 1.86312 7.30839 2.56923V7.96193L7.33595 7.98895H7.30839V7.96193L6.53608 7.18969L6.5406 7.19422H6.51358V7.16665L4.36771 5.02079C4.07316 5.33256 3.79098 5.65541 3.5219 5.98989L5.52171 7.98922H2.15239C1.51574 9.08668 1.0067 10.2659 0.643921 11.5084H7.28082L7.30839 11.4803V11.5084H7.28082L6.51358 12.2757V12.3037H6.48555L2.78878 16H4.60321L7.30866 13.2943V16H10.8278V11.6332L15.1946 16H15.7951C15.8636 15.9285 15.9333 15.8575 16.0005 15.784V14.9915L13.3115 12.3035Z" fill="#D32030"/>
<path d="M10.8275 6.20165L16.0002 1.02924L10.8275 6.20165Z" fill="#D32030"/>
<path d="M6.51363 12.3035V12.2751L6.4856 12.3035H6.51363Z" fill="#D32030"/>
<path d="M7.30864 11.4799L7.28088 11.5079H7.30864V11.4799Z" fill="#D32030"/>
<path d="M10.8275 8.01603L10.8543 7.98901H10.8275V8.01603Z" fill="#D32030"/>
<path d="M6.51355 7.19394H6.54084L6.53632 7.18968L6.51355 7.16644V7.19394Z" fill="#D32030"/>
<path d="M7.33609 7.98902L7.30859 7.96173V7.98902H7.33609Z" fill="#D32030"/>
</svg>
