<svg width="32" height="32" viewBox="0 0 32 32" fill="none" xmlns="http://www.w3.org/2000/svg">
<g clip-path="url(#clip0_2_261)">
<path d="M16.0007 32C24.8369 32 32 24.8369 32 16.0007C32 7.16449 24.8369 0.0013504 16.0007 0.0013504C7.16449 0.0013504 0.0013504 7.16449 0.0013504 16.0007C0.0013504 24.8369 7.16449 32 16.0007 32Z" fill="white"/>
<path d="M31.0855 10.6654C31.0837 10.6603 31.0822 10.656 31.0804 10.6514C29.0327 4.87755 23.7655 0.629557 17.4369 0.0656662C19.8856 1.40814 20.6008 5.66148 21.2274 10.6653C21.6553 14.0832 21.6581 17.8491 21.2355 21.2713C20.6142 26.3022 19.896 30.5855 17.4369 31.9336C23.7769 31.3687 29.0516 27.106 31.0914 21.3167C31.0967 21.3013 31.1012 21.2861 31.1068 21.2713C31.6828 19.6203 31.9998 17.8474 31.9998 16.0001C31.9998 14.1286 31.6757 12.3339 31.0855 10.6654Z" fill="#D32027"/>
<path d="M22.0511 10.6654C21.4249 5.66148 19.8858 1.40821 17.4369 0.0657321C16.9631 0.0237798 16.4842 0 15.9997 0C9.03942 0 3.12022 4.44533 0.919304 10.6514C0.917548 10.656 0.915994 10.6603 0.914237 10.6654C0.324134 12.3339 0 14.1286 0 16.0001C0 17.8477 0.317041 19.6203 0.893025 21.2713C0.898362 21.2862 0.903158 21.3013 0.908428 21.3167C3.10076 27.5388 9.028 31.9997 15.9996 31.9997C16.4842 31.9997 16.9631 31.976 17.4368 31.9335C19.8959 30.5855 21.4379 26.3021 22.0592 21.2712C22.4819 17.8489 22.4791 14.0832 22.0511 10.6654Z" fill="#DB2727"/>
<path d="M18.7387 7.75004H13.237V24.2547H18.7387V7.75004Z" fill="white"/>
<path d="M24.2412 13.2518H7.73653V18.7536H24.2412V13.2518Z" fill="white"/>
</g>
<defs>
<clipPath id="clip0_2_261">
<rect width="32" height="32" fill="white"/>
</clipPath>
</defs>
</svg>
