<svg width="32" height="32" viewBox="0 0 32 32" fill="none" xmlns="http://www.w3.org/2000/svg">
<path d="M16 32C24.8366 32 32 24.8366 32 16C32 7.16344 24.8366 0 16 0C7.16344 0 0 7.16344 0 16C0 24.8366 7.16344 32 16 32Z" fill="#D80027"/>
<path d="M8.75707 9.73914L10.1384 13.9906H14.6087L10.9922 16.6181L12.3736 20.8696L8.75707 18.242L5.14057 20.8696L6.52194 16.6181L2.90544 13.9906H7.37563L8.75707 9.73914Z" fill="#FFDA44"/>
<path d="M17.4636 23.8793L16.1074 22.8939L14.7513 23.8792L15.2692 22.285L13.9131 21.2996H15.5895L16.1074 19.7053L16.6255 21.2996H18.3018L16.9457 22.2849L17.4636 23.8793Z" fill="#FFDA44"/>
<path d="M21.0016 19.0097H19.3253L18.8073 20.6039L18.2893 19.0098L16.6129 19.0097L17.9692 18.0243L17.451 16.4301L18.8073 17.4153L20.1636 16.43L19.6454 18.0243L21.0016 19.0097Z" fill="#FFDA44"/>
<path d="M21.0016 12.9905L19.6454 13.9759L20.1635 15.57L18.8073 14.5848L17.451 15.5701L17.9692 13.9758L16.6129 12.9906L18.2893 12.9904L18.8073 11.3961L19.3253 12.9904L21.0016 12.9905Z" fill="#FFDA44"/>
<path d="M17.4636 8.12082L16.9458 9.71519L18.3018 10.7004L16.6256 10.7004L16.1075 12.2949L15.5895 10.7004L13.9132 10.7005L15.2694 9.71507L14.7513 8.12076L16.1074 9.1062L17.4636 8.12082Z" fill="#FFDA44"/>
</svg>
