<svg width="32" height="32" viewBox="0 0 32 32" fill="none" xmlns="http://www.w3.org/2000/svg">
<path d="M16 32C24.8366 32 32 24.8366 32 16C32 7.16344 24.8366 0 16 0C7.16344 0 0 7.16344 0 16C0 24.8366 7.16344 32 16 32Z" fill="#F0F0F0"/>
<path d="M12.5218 13.9131H31.8646C30.8419 6.06262 24.1292 0 16 0C14.8053 0 13.6417 0.132063 12.5217 0.380313V13.9131H12.5218Z" fill="#D80027"/>
<path d="M8.3478 13.913V1.94543C3.9545 4.34256 0.809374 8.7395 0.135437 13.9131H8.3478V13.913Z" fill="#D80027"/>
<path d="M8.34774 18.0869H0.135437C0.809374 23.2605 3.9545 27.6574 8.3478 30.0545L8.34774 18.0869Z" fill="#D80027"/>
<path d="M12.5217 18.087V31.6197C13.6417 31.8679 14.8053 32 16 32C24.1292 32 30.8419 25.9374 31.8646 18.0869H12.5217V18.087Z" fill="#D80027"/>
</svg>
