<svg width="32" height="32" viewBox="0 0 32 32" fill="none" xmlns="http://www.w3.org/2000/svg">
<path d="M16 32C24.8366 32 32 24.8366 32 16C32 7.16344 24.8366 0 16 0C7.16344 0 0 7.16344 0 16C0 24.8366 7.16344 32 16 32Z" fill="#0052B4"/>
<path d="M16.0001 6.26088L16.5181 7.85519H18.1944L16.8382 8.8405L17.3563 10.4348L16.0001 9.44944L14.6438 10.4348L15.1619 8.8405L13.8057 7.85519H15.482L16.0001 6.26088Z" fill="#FFDA44"/>
<path d="M9.11338 9.11338L10.6071 9.87438L11.7924 8.68913L11.5301 10.3448L13.0238 11.1058L11.3681 11.3681L11.1059 13.0238L10.3448 11.5301L8.68919 11.7924L9.87451 10.6071L9.11338 9.11338Z" fill="#FFDA44"/>
<path d="M6.26094 16L7.85525 15.4819V13.8056L8.8405 15.1619L10.4349 14.6438L9.44944 16L10.4349 17.3562L8.8405 16.8382L7.85525 18.1944V16.5181L6.26094 16Z" fill="#FFDA44"/>
<path d="M9.11338 22.8866L9.87444 21.3929L8.68919 20.2076L10.3449 20.4699L11.1058 18.9762L11.3681 20.6319L13.0238 20.8942L11.5303 21.6552L11.7924 23.3109L10.6071 22.1256L9.11338 22.8866Z" fill="#FFDA44"/>
<path d="M16.0001 25.7391L15.4819 24.1448H13.8057L15.1619 23.1595L14.6438 21.5653L16.0001 22.5506L17.3563 21.5653L16.8382 23.1595L18.1944 24.1448H16.5181L16.0001 25.7391Z" fill="#FFDA44"/>
<path d="M22.8867 22.8866L21.393 22.1256L20.2076 23.3109L20.4699 21.6552L18.9764 20.8942L20.632 20.6319L20.8943 18.9762L21.6553 20.4699L23.3109 20.2076L22.1256 21.393L22.8867 22.8866Z" fill="#FFDA44"/>
<path d="M25.7391 16L24.1448 16.5181V18.1944L23.1595 16.8381L21.5653 17.3562L22.5506 16L21.5653 14.6438L23.1596 15.1619L24.1448 13.8056V15.482L25.7391 16Z" fill="#FFDA44"/>
<path d="M22.8867 9.11338L22.1256 10.6071L23.3109 11.7924L21.6552 11.5301L20.8943 13.0238L20.632 11.3681L18.9764 11.1058L20.4699 10.3448L20.2076 8.68919L21.3931 9.87444L22.8867 9.11338Z" fill="#FFDA44"/>
</svg>
