<svg width="32" height="32" viewBox="0 0 32 32" fill="none" xmlns="http://www.w3.org/2000/svg">
<path d="M0.995188 10.4348C0.352063 12.1681 0 14.0428 0 16C0 17.9571 0.352063 19.8319 0.995188 21.5651L16 22.9565L31.0048 21.5651C31.6479 19.8319 32 17.9571 32 16C32 14.0428 31.6479 12.1681 31.0048 10.4348L16 9.04346L0.995188 10.4348Z" fill="#F0F0F0"/>
<path d="M16 0C9.12063 0 3.25588 4.342 0.995255 10.4348H31.0049C28.7441 4.342 22.8795 0 16 0Z" fill="#D80027"/>
<path d="M16 32C22.8795 32 28.7441 27.658 31.0049 21.5652H0.995255C3.25588 27.658 9.12063 32 16 32Z" fill="#6DA544"/>
</svg>
