<svg width="32" height="32" viewBox="0 0 32 32" fill="none" xmlns="http://www.w3.org/2000/svg">
<path d="M21.9394 16.0002H32C32 7.16316 24.8366 0 15.9998 0C20.418 0 21.9397 7.99985 21.9394 16.0002Z" fill="#BB2029"/>
<path d="M0 16.0002H22.6271C22.6273 7.99985 20.418 0 15.9998 0C7.16343 0 0 7.16316 0 16.0002Z" fill="#CD2029"/>
<path d="M21.6026 16.0002C21.6026 24.0001 20.4183 32 15.9998 32C24.8366 32 32 24.8366 32 16.0002H21.6026Z" fill="#E4E4E4"/>
<path d="M22.6271 16.0002H0C0 24.8366 7.16343 32 15.9998 32C20.418 32 22.6271 24.0001 22.6271 16.0002Z" fill="#F3F4F5"/>
</svg>
