<svg width="32" height="32" viewBox="0 0 32 32" fill="none" xmlns="http://www.w3.org/2000/svg">
<path d="M16 32C24.8366 32 32 24.8366 32 16C32 7.16344 24.8366 0 16 0C7.16344 0 0 7.16344 0 16C0 24.8366 7.16344 32 16 32Z" fill="#F0F0F0"/>
<path d="M22.0246 12.5218H18.0081L16 9.0435L13.9919 12.5218H9.97543L11.9838 16L9.97543 19.4783H13.9919L16 22.9565L18.0081 19.4783H22.0246L20.0162 16L22.0246 12.5218ZM18.4672 16L17.2337 18.1368H14.7665L13.5328 16L14.7664 13.8633H17.2336L18.4672 16ZM16 11.7264L16.4591 12.5217H15.541L16 11.7264ZM12.2991 13.8633H13.2174L12.7582 14.6585L12.2991 13.8633ZM12.2991 18.1368L12.7583 17.3415L13.2174 18.1368H12.2991ZM16 20.2735L15.5409 19.4783H16.4591L16 20.2735ZM19.7009 18.1368H18.7826L19.2418 17.3415L19.7009 18.1368ZM18.7826 13.8633H19.7009L19.2417 14.6585L18.7826 13.8633Z" fill="#0052B4"/>
<path d="M25.9598 3.47826H6.04019C4.58 4.64126 3.32775 6.05388 2.34837 7.65219H29.6516C28.6722 6.05394 27.4199 4.64126 25.9598 3.47826Z" fill="#0052B4"/>
<path d="M6.04019 28.5217H25.9597C27.4199 27.3587 28.6722 25.9461 29.6516 24.3478H2.34837C3.32781 25.9461 4.58006 27.3587 6.04019 28.5217Z" fill="#0052B4"/>
</svg>
