<svg width="32" height="32" viewBox="0 0 32 32" fill="none" xmlns="http://www.w3.org/2000/svg">
<g clip-path="url(#clip0_53_141)">
<path d="M16.0007 31.9999C24.8369 31.9999 32 24.8368 32 16.0006C32 7.16442 24.8369 0.00128174 16.0007 0.00128174C7.16449 0.00128174 0.0013504 7.16442 0.0013504 16.0006C0.0013504 24.8368 7.16449 31.9999 16.0007 31.9999Z" fill="white"/>
<path d="M31.0855 10.6653H21.2274C21.6556 14.0832 21.6581 17.8491 21.2357 21.2713H31.1065C31.6828 19.6203 31.9995 17.8474 31.9995 16.0001C31.9998 14.1286 31.6757 12.3339 31.0855 10.6653Z" fill="#EFECEC"/>
<path d="M21.2274 10.6653H31.0853C31.0838 10.6602 31.0823 10.656 31.0802 10.6514C29.0327 4.87756 23.7652 0.629565 17.4366 0.0656738C19.8859 1.40815 20.6013 5.66149 21.2274 10.6653Z" fill="#E97E24"/>
<path d="M17.4371 31.9336C23.7771 31.3687 29.0518 27.1061 31.0916 21.3168C31.0969 21.3014 31.1014 21.2862 31.107 21.2713H21.2359C20.6147 26.3022 19.8962 30.5855 17.4371 31.9336Z" fill="#258F44"/>
<path d="M0 16.0001C0 17.8476 0.317311 19.6203 0.893025 21.2712H22.0592C22.4821 17.8488 22.4791 14.0831 22.0514 10.6652H0.914305C0.324134 12.3339 0 14.1286 0 16.0001Z" fill="#EFEFEF"/>
<path d="M0.919305 10.6514C0.917818 10.656 0.916265 10.6603 0.914238 10.6654H22.0514C21.4249 5.66147 19.8858 1.4082 17.4368 0.0657257C16.9631 0.0237733 16.4842 6.10359e-05 15.9996 6.10359e-05C9.03941 -6.52029e-06 3.12049 4.44526 0.919305 10.6514Z" fill="#EA8634"/>
<path d="M22.0593 21.2712H0.893024C0.898361 21.2861 0.903361 21.3012 0.908427 21.3166C3.10083 27.5387 9.02827 31.9997 15.9997 31.9997C16.4842 31.9997 16.9632 31.9759 17.4369 31.9335C19.8962 30.5855 21.438 26.3022 22.0593 21.2712Z" fill="#359846"/>
</g>
<defs>
<clipPath id="clip0_53_141">
<rect width="32" height="32" fill="white"/>
</clipPath>
</defs>
</svg>
