<svg width="32" height="32" viewBox="0 0 32 32" fill="none" xmlns="http://www.w3.org/2000/svg">
<path d="M16 31C24.2843 31 31 24.2843 31 16C31 7.71573 24.2843 1 16 1C7.71573 1 1 7.71573 1 16C1 24.2843 7.71573 31 16 31Z" fill="#F5F5F5"/>
<path d="M11.7 16.85C13.1 17.8 15.05 17.4 16 16C16.95 14.6 18.85 14.2 20.3 15.15C21.65 16.05 22.05 17.8 21.3 19.15C22.95 16.35 22.2 12.7 19.4 10.85C16.55 8.95002 12.7 9.70002 10.8 12.55C10.75 12.65 10.7 12.75 10.65 12.8C9.95 14.25 10.4 15.95 11.7 16.85" fill="#ED4C5C"/>
<path d="M21.15 19.45C21.2 19.35 21.25 19.25 21.3 19.2C21.25 19.25 21.2 19.35 21.15 19.45Z" fill="#003478"/>
<path d="M20.3 15.15C18.9 14.2 16.95 14.6 16 16C15.05 17.4 13.15 17.8 11.7 16.85C10.35 15.95 9.95 14.2 10.7 12.85C9 15.65 9.8 19.3 12.6 21.15C15.45 23.05 19.3 22.3 21.2 19.45C21.25 19.35 21.3 19.25 21.35 19.2C22.05 17.75 21.6 16.05 20.3 15.15" fill="#428BC1"/>
<path d="M3.9 11.65L7.35 6.49999L7 6.24999L6.65 6.04999L3.2 11.2L3.55 11.4L3.9 11.65Z" fill="#3E4347"/>
<path d="M4.85 12.3L5.2 12.5L8.6 7.34996L8.3 7.14996L7.95 6.89996L4.5 12.05L4.85 12.3Z" fill="#3E4347"/>
<path d="M9.2 7.75L5.8 12.9L6.15 13.15L6.5 13.35L9.9 8.2L9.55 8L9.2 7.75Z" fill="#3E4347"/>
<path d="M24.25 21.25L24.6 21.5L26.2 19.1L25.85 18.85L25.5 18.65L23.9 21.05L24.25 21.25Z" fill="#3E4347"/>
<path d="M28.1 20.35L26.5 22.75L26.85 23L27.2 23.2L28.8 20.8L28.45 20.6L28.1 20.35Z" fill="#3E4347"/>
<path d="M25.9 22.35L27.5 19.95L27.15 19.7L26.8 19.5L25.2 21.9L25.55 22.1L25.9 22.35Z" fill="#3E4347"/>
<path d="M24.05 21.6L23.7 21.4L22.1 23.8L22.45 24L22.8 24.25L24.4 21.85L24.05 21.6Z" fill="#3E4347"/>
<path d="M25.3 22.45L25 22.25L23.4 24.65L23.7 24.85L24.05 25.1L25.65 22.7L25.3 22.45Z" fill="#3E4347"/>
<path d="M26.25 23.1L24.65 25.5L25 25.75L25.35 25.95L26.95 23.55L26.6 23.3L26.25 23.1Z" fill="#3E4347"/>
<path d="M3.55 20.6L3.2 20.8L6.65 25.95L7 25.75L7.35 25.5L3.9 20.35L3.55 20.6Z" fill="#3E4347"/>
<path d="M6.69999 22.45L6.34999 22.7L7.94999 25.1L8.29999 24.85L8.59999 24.65L6.99999 22.25L6.69999 22.45Z" fill="#3E4347"/>
<path d="M6.15 18.85L5.8 19.1L9.2 24.25L9.55 24L9.9 23.8L6.5 18.65L6.15 18.85Z" fill="#3E4347"/>
<path d="M4.5 19.95L6.1 22.35L6.45 22.1L6.8 21.9L5.2 19.5L4.85 19.7L4.5 19.95Z" fill="#3E4347"/>
<path d="M26.6 8.69999L26.95 8.44999L25.35 6.04999L25 6.24999L24.65 6.49999L26.25 8.89999L26.6 8.69999Z" fill="#3E4347"/>
<path d="M24.05 10.4L24.4 10.15L22.8 7.75L22.45 8L22.1 8.2L23.7 10.6L24.05 10.4Z" fill="#3E4347"/>
<path d="M26.5 9.24999L28.1 11.65L28.45 11.4L28.8 11.2L27.2 8.79999L26.85 8.99999L26.5 9.24999Z" fill="#3E4347"/>
<path d="M27.15 12.3L27.5 12.05L24.05 6.89996L23.7 7.14996L23.4 7.34996L26.8 12.5L27.15 12.3Z" fill="#3E4347"/>
<path d="M25.85 13.15L26.2 12.9L24.6 10.5L24.25 10.75L23.9 10.95L25.5 13.35L25.85 13.15Z" fill="#3E4347"/>
</svg>
