<svg width="32" height="32" viewBox="0 0 32 32" fill="none" xmlns="http://www.w3.org/2000/svg">
<path d="M24.7437 0.455383H7.25616C3.50017 0.455383 0.455368 3.50025 0.455368 7.25618V24.7438C0.455368 28.4998 3.50017 31.5446 7.2561 31.5446H24.7437C28.4997 31.5446 31.5445 28.4998 31.5445 24.7438V7.25618C31.5445 3.50025 28.4997 0.455383 24.7437 0.455383Z" fill="white"/>
<path d="M23.7722 0.455383H7.25616C3.50017 0.455383 0.455368 3.50025 0.455368 7.25619V21.1815H23.7722L23.7722 0.455383Z" fill="#103B9B"/>
<path d="M31.5447 21.1813H0.455368V24.635H31.5447V21.1813Z" fill="#ED1F34"/>
<path d="M31.5449 14.2725H23.7724V17.7275H31.5449V14.2725Z" fill="#ED1F34"/>
<path d="M31.5449 7.36438H23.7724V10.8181H31.5449V7.36438Z" fill="#ED1F34"/>
<path d="M7.25616 31.5446H24.7438C27.2831 31.5446 29.4969 30.1527 30.665 28.0906H1.33499C2.50305 30.1527 4.71692 31.5446 7.25616 31.5446Z" fill="#ED1F34"/>
<path d="M30.6649 3.90938C29.4968 1.84726 27.2829 0.455383 24.7437 0.455383H23.7722V3.90938H30.6649Z" fill="#ED1F34"/>
<path d="M16.4706 14.1217C18.2947 14.1217 19.7735 12.643 19.7735 10.8188C19.7735 8.99464 18.2947 7.51587 16.4706 7.51587C14.6464 7.51587 13.1677 8.99464 13.1677 10.8188C13.1677 12.643 14.6464 14.1217 16.4706 14.1217Z" fill="#FFE000"/>
<path d="M13.3481 16.1891C10.3822 16.1891 7.97786 13.7847 7.97786 10.8188C7.97786 7.85289 10.3822 5.44864 13.3481 5.44864C13.4374 5.44864 13.526 5.45108 13.6142 5.45533C12.7244 4.95496 11.6984 4.6684 10.6049 4.6684C7.20804 4.6684 4.45442 7.42208 4.45442 10.8188C4.45442 14.2156 7.20804 16.9694 10.6049 16.9694C11.6984 16.9694 12.7244 16.6827 13.6142 16.1824C13.526 16.1866 13.4374 16.1891 13.3481 16.1891Z" fill="#FFE000"/>
<path d="M12.712 10.8184C12.712 12.8908 14.398 14.5767 16.4703 14.5767C18.5427 14.5767 20.2286 12.8908 20.2286 10.8184C20.2286 8.74606 18.5427 7.06006 16.4703 7.06006C14.398 7.06006 12.712 8.74606 12.712 10.8184ZM16.4703 7.97087C18.0404 7.97087 19.3178 9.24824 19.3178 10.8184C19.3178 12.3885 18.0405 13.6659 16.4703 13.6659C14.9003 13.6659 13.6228 12.3885 13.6228 10.8184C13.6228 9.24824 14.9002 7.97087 16.4703 7.97087Z" fill="black"/>
<path d="M10.6049 17.4247C11.7361 17.4247 12.8539 17.1324 13.8374 16.5793C14.0215 16.4758 14.1102 16.2593 14.0518 16.0564C13.9934 15.8534 13.8027 15.7175 13.5922 15.7275C13.5064 15.7316 13.4266 15.7337 13.3481 15.7337C10.638 15.7337 8.43324 13.5289 8.43324 10.8189C8.43324 8.10882 10.638 5.90407 13.3481 5.90407C13.4266 5.90407 13.5065 5.90607 13.5922 5.91026C13.6006 5.9107 13.6096 5.91076 13.6173 5.91082C13.8679 5.90976 14.0707 5.70632 14.0707 5.45539C14.0707 5.27564 13.9667 5.12032 13.8155 5.0462C12.8374 4.50101 11.7277 4.21301 10.6049 4.21301C6.96236 4.21301 3.99899 7.17638 3.99899 10.8189C3.99899 14.4614 6.96236 17.4247 10.6049 17.4247ZM10.6049 5.12376C10.9736 5.12376 11.3407 5.15982 11.7005 5.23039C9.28792 5.94276 7.52243 8.17845 7.52243 10.8188C7.52243 13.4592 9.28799 15.6949 11.7005 16.4073C11.3407 16.4779 10.9736 16.5139 10.6049 16.5139C7.46461 16.5139 4.9098 13.9591 4.9098 10.8189C4.90987 7.67857 7.46468 5.12376 10.6049 5.12376Z" fill="black"/>
<path d="M31.0838 3.73049C31.0714 3.70143 31.0558 3.67406 31.0379 3.64843C29.7843 1.47 27.4325 0 24.7438 0H7.25617C3.25512 0 0 3.25512 0 7.25617V24.7438C0 26.0227 0.332999 27.225 0.916123 28.2696C0.928561 28.2986 0.944123 28.3259 0.961998 28.3516C2.21562 30.5299 4.56743 31.9999 7.25617 31.9999H24.7438C27.4326 31.9999 29.7844 30.5299 31.0379 28.3515C31.0559 28.3259 31.0714 28.2985 31.0839 28.2694C31.667 27.2249 32 26.0226 32 24.7438V7.25617C31.9999 5.97736 31.6669 4.77499 31.0838 3.73049ZM31.0795 6.90905H24.2276V4.3648H30.3912C30.7873 5.13524 31.0301 5.99686 31.0795 6.90905ZM24.2276 14.7278H31.0891V17.2721H24.2276V14.7278ZM24.2276 13.817V11.2739H31.0891V13.817H24.2276ZM24.2276 10.363V7.8198H31.0891V10.363H24.2276ZM24.2276 18.1829H31.0891V20.7261H24.2276V18.1829ZM29.8207 3.45399H24.2276V0.910811H24.7438C26.8176 0.910811 28.6621 1.91087 29.8207 3.45399ZM7.25617 0.910811H23.3168V20.7261H5.45886C5.2073 20.7261 5.00343 20.93 5.00343 21.1815C5.00343 21.4331 5.2073 21.6369 5.45886 21.6369H31.0891V24.1801H0.910811V21.6369H3.56431C3.81587 21.6369 4.01974 21.433 4.01974 21.1815C4.01974 20.93 3.81587 20.7261 3.56431 20.7261H0.910811V7.25617C0.910811 3.75737 3.75737 0.910811 7.25617 0.910811ZM24.7438 31.0891H7.25617C5.18243 31.0891 3.33787 30.0891 2.17925 28.5459H25.691C25.9426 28.5459 26.1464 28.3421 26.1464 28.0906C26.1464 27.839 25.9426 27.6352 25.691 27.6352H1.60875C1.21269 26.8648 0.969873 26.0031 0.920436 25.091H31.0795C31.0301 26.0031 30.7873 26.8647 30.3912 27.6352H27.5855C27.3339 27.6352 27.1301 27.8391 27.1301 28.0906C27.1301 28.3421 27.3339 28.5459 27.5855 28.5459H29.8207C28.6621 30.0891 26.8176 31.0891 24.7438 31.0891Z" fill="black"/>
</svg>
