<svg width="32" height="32" viewBox="0 0 32 32" fill="none" xmlns="http://www.w3.org/2000/svg">
<path d="M32 16C32 24.8365 24.8365 32 16 32C7.1635 32 0 24.8365 0 16C0 16.0038 16 0.00175 16 0C24.8365 0 32 7.1635 32 16Z" fill="#0052B4"/>
<path d="M15.9572 16H16C16 15.9857 16 15.9717 16 15.9572C15.9857 15.9715 15.9715 15.9858 15.9572 16Z" fill="#F0F0F0"/>
<path d="M16 8.34781C16 5.5325 16 3.68781 16 0H15.9973C7.162 0.0015 0 7.16431 0 16H8.34781V11.2993L13.0486 16H15.9572C15.9715 15.9857 15.9858 15.9715 16.0001 15.9572C16.0001 14.8793 16.0001 13.9174 16.0001 13.0486L11.2992 8.34781H16Z" fill="#F0F0F0"/>
<path d="M8.0947 2.08691C5.59226 3.51185 3.51188 5.59223 2.08694 8.09467V16H6.26088V6.26098V6.26085H16C16 4.94442 16 3.69029 16 2.08691H8.0947V2.08691Z" fill="#D80027"/>
<path d="M16 14.0324L10.3154 8.34784C10.3154 8.34784 8.34789 8.34796 8.34789 8.34784V8.34796L15.9999 16H16C16 16 16 14.6433 16 14.0324Z" fill="#D80027"/>
<path d="M27.7081 11.8724L28.0535 12.9353H29.171L28.2669 13.5922L28.6123 14.655L27.7081 13.9982L26.804 14.655L27.1493 13.5922L26.2451 12.9353H27.3627L27.7081 11.8724Z" fill="#D80027"/>
<path d="M23.7132 19.5245L24.2313 21.1189H25.9076L24.5513 22.1042L25.0695 23.6985L23.7132 22.7132L22.357 23.6985L22.8751 22.1042L21.5188 21.1189H23.1951L23.7132 19.5245Z" fill="#D80027"/>
<path d="M23.8641 7.00287L24.2958 8.33156H25.6928L24.5625 9.15249L24.9943 10.4811L23.8641 9.65993L22.734 10.4811L23.1656 9.15249L22.0355 8.33156H23.4324L23.8641 7.00287Z" fill="#D80027"/>
<path d="M20.0201 11.826L20.5381 13.4204H22.2145L20.8583 14.4057L21.3764 16L20.0201 15.0147L18.6639 16L19.182 14.4057L17.8258 13.4204H19.5021L20.0201 11.826Z" fill="#D80027"/>
</svg>
