<svg width="32" height="32" viewBox="0 0 32 32" fill="none" xmlns="http://www.w3.org/2000/svg">
<path d="M16 32C24.8366 32 32 24.8366 32 16C32 7.16344 24.8366 0 16 0C7.16344 0 0 7.16344 0 16C0 24.8366 7.16344 32 16 32Z" fill="#F0F0F0"/>
<path d="M16 0V16L4.68625 27.3137C7.58169 30.2091 11.5817 32 16 32C24.8365 32 32 24.8365 32 16C32 7.1635 16 0 16 0Z" fill="#D80027"/>
<path d="M16 0C11.5817 0 7.58169 1.79088 4.68625 4.68625C8.61187 8.61188 10.0054 10.0055 16 16H32C32 7.1635 24.8365 0 16 0Z" fill="#0052B4"/>
<path d="M10.9557 16L9.0017 15.0809L10.0423 13.1884L7.92039 13.5944L7.65151 11.4508L6.17351 13.0273L4.69558 11.4508L4.42664 13.5944L2.30483 13.1884L3.34539 15.0809L1.39133 16L3.34539 16.9191L2.30483 18.8116L4.42683 18.4057L4.69551 20.5492L6.17351 18.9727L7.65151 20.5492L7.92039 18.4057L10.0421 18.8116L9.00164 16.9192L10.9557 16Z" fill="#FFDA44"/>
<path d="M4.26708 6.26086L4.91733 7.1698L5.98264 6.83236L5.31902 7.73161L5.96927 8.64055L4.90889 8.28736L4.24533 9.18655L4.25364 8.06905L3.19333 7.7158L4.25883 7.37836L4.26708 6.26086Z" fill="#FFDA44"/>
<path d="M4.26708 22.8135L4.91733 23.7224L5.98264 23.3849L5.31902 24.2842L5.96927 25.1932L4.90889 24.84L4.24533 25.7392L4.25364 24.6217L3.19333 24.2684L4.25883 23.931L4.26708 22.8135Z" fill="#FFDA44"/>
<path d="M13.5416 14.5371L12.8915 15.446L11.8261 15.1085L12.4897 16.0078L11.8395 16.9168L12.8998 16.5635L13.5635 17.4627L13.5551 16.3453L14.6154 15.992L13.55 15.6546L13.5416 14.5371Z" fill="#FFDA44"/>
</svg>
