<svg width="32" height="32" viewBox="0 0 32 32" fill="none" xmlns="http://www.w3.org/2000/svg">
<path d="M0.000137329 16.0002C0.000137329 21.795 3.08095 26.8701 7.69399 29.6779V2.32245C3.08095 5.12968 0.000137329 10.205 0.000137329 16.0002Z" fill="#F3F4F5"/>
<path d="M15.9997 0C15.9997 0 21.9406 21.8013 22.1859 22.0466C23.8037 21.9016 25.3878 21.2385 26.6673 20.0443C27.6948 19.085 28.3943 17.9053 28.7629 16.6482C28.6692 18.9726 27.6968 21.2628 25.8617 22.9753C24.6021 24.1511 23.0984 24.9021 21.5271 25.2361L15.9997 31.9997C24.8365 31.9997 31.9999 24.8364 31.9999 16.0001C31.9999 7.16283 24.8366 0 15.9997 0Z" fill="#036535"/>
<path d="M15.4818 31.9909C15.4434 31.9899 15.4045 31.9879 15.3661 31.9863C15.4048 31.9881 15.4432 31.9899 15.4818 31.9909Z" fill="#036535"/>
<path d="M15.3662 0.0133755C15.4046 0.0118279 15.4435 0.0103477 15.4819 0.00933838C15.4432 0.0103477 15.4048 0.0118279 15.3662 0.0133755Z" fill="#036535"/>
<path d="M25.8617 22.9753C27.6971 21.2627 28.6692 18.9726 28.763 16.6481C28.3944 17.9055 27.6949 19.085 26.6674 20.0442C25.3878 21.2384 23.8039 21.9016 22.186 22.0466C22.0155 23.1647 21.7964 24.2374 21.5271 25.2361C23.0984 24.9021 24.6021 24.151 25.8617 22.9753Z" fill="#F3F4F5"/>
<path d="M15.4818 0.00935271C15.6539 0.00403714 15.8265 0 15.9997 0C15.828 0 15.6554 0.00403714 15.4818 0.00935271Z" fill="#263778"/>
<path d="M15.9997 31.9997C15.8264 31.9997 15.6539 31.9962 15.4818 31.9909C15.6554 31.9965 15.828 31.9997 15.9997 31.9997Z" fill="#263778"/>
<path d="M21.527 25.236C18.4869 25.8825 15.1926 24.9658 12.9176 22.5276C9.46642 18.8296 9.66653 13.0347 13.3643 9.58377C15.1994 7.87095 17.5509 7.05874 19.8759 7.12542C18.596 7.40607 17.3713 8.02254 16.3436 8.98177C13.2887 11.8327 13.1235 16.6203 15.9745 19.6751C17.631 21.4499 19.9413 22.2474 22.1859 22.0466C23.6178 12.6533 21.5566 0 15.9997 0C15.8264 0 15.6539 0.00403714 15.4818 0.00935271C15.4434 0.010362 15.4045 0.0119096 15.3661 0.0133899C12.5639 0.122796 9.94617 0.951891 7.69398 2.32243V29.6778C9.94617 31.0481 12.5637 31.8775 15.3661 31.9866C15.4045 31.9881 15.4434 31.9902 15.4818 31.9912C15.6539 31.9965 15.8264 32 15.9997 32C18.618 31.9997 20.4604 29.1902 21.527 25.236Z" fill="#0C723E"/>
<path d="M15.9748 19.6751C13.1238 16.6203 13.2891 11.8327 16.3438 8.98178C17.3716 8.02256 18.5963 7.40615 19.8761 7.12544C17.5511 7.05876 15.1994 7.87096 13.3646 9.58378C9.66654 13.0347 9.46643 18.8296 12.9176 22.5276C15.1926 24.9655 18.4869 25.8822 21.5271 25.236C21.7963 24.2374 22.0156 23.1647 22.1859 22.0466C19.9415 22.2474 17.631 21.4501 15.9748 19.6751Z" fill="#F3F4F5"/>
<path d="M23.847 9.23749L25.1655 10.7424L27.0046 9.95347L25.9802 11.6726L27.2992 13.178L25.3473 12.7354L24.3232 14.4543L24.1408 12.4621L22.1898 12.0189L24.0289 11.23L23.847 9.23749Z" fill="#F3F4F5"/>
</svg>
