<svg width="32" height="32" viewBox="0 0 32 32" fill="none" xmlns="http://www.w3.org/2000/svg">
<path d="M21.9391 16.0002H32C32 7.16316 24.8366 0 15.9998 0C20.4178 0 21.9397 8.00039 21.9391 16.0002Z" fill="#E4E4E4"/>
<path d="M0 16.0002H22.6268C22.6273 8.00039 20.4178 0 15.9998 0C7.16343 0 0 7.16316 0 16.0002Z" fill="#F3F4F5"/>
<path d="M21.6026 16.0002C21.6026 24.0001 20.418 32 15.9998 32C24.8366 32 32 24.8366 32 16.0002H21.6026Z" fill="#D84141"/>
<path d="M22.6268 16.0002H0C0 24.8366 7.16343 32 15.9998 32C20.4178 32 22.6268 24.0002 22.6268 16.0002Z" fill="#DC4D4E"/>
</svg>
