<svg width="32" height="32" viewBox="0 0 32 32" fill="none" xmlns="http://www.w3.org/2000/svg">
<path d="M16.001 31.9993C24.837 31.9993 32 24.8363 32 16.0003C32 7.16434 24.837 0.00134277 16.001 0.00134277C7.165 0.00134277 0.00201416 7.16434 0.00201416 16.0003C0.00201416 24.8363 7.165 31.9993 16.001 31.9993Z" fill="white"/>
<path d="M31.0851 10.6654C31.0836 10.6604 31.0821 10.6561 31.0801 10.6515C29.0325 4.87783 23.7653 0.629919 17.4368 0.06604C19.8855 1.40849 20.6009 5.66173 21.2272 10.6654C21.6554 14.0832 21.6579 17.8489 21.2355 21.2712C20.6143 26.302 19.8958 30.5852 17.4368 31.9333C23.7766 31.3684 29.0512 27.1058 31.0909 21.3167C31.0962 21.3013 31.1008 21.2861 31.1063 21.2712C31.6826 19.6203 31.9993 17.8474 31.9993 16.0002C31.9994 14.1287 31.6753 12.3343 31.0851 10.6654Z" fill="#1C468C"/>
<path d="M22.0512 10.6654C21.4247 5.66165 19.8857 1.40848 17.4368 0.0660294C16.9631 0.0240779 16.4841 0.000366211 15.9996 0.000366211C9.0395 0.000366211 3.12076 4.4456 0.919627 10.6516C0.918141 10.6561 0.916587 10.6604 0.91456 10.6655C0.324402 12.3344 0.000274658 14.1287 0.000274658 16.0002C0.000274658 17.8477 0.317579 19.6203 0.893281 21.2712C0.898618 21.2862 0.903617 21.3013 0.908683 21.3167C3.10097 27.5386 9.02836 31.9995 15.9995 31.9995C16.4841 31.9995 16.9631 31.9757 17.4367 31.9333C19.8958 30.5853 21.4378 26.302 22.059 21.2712C22.482 17.8489 22.4792 14.0835 22.0512 10.6654Z" fill="#27509F"/>
<path d="M31.7851 18.5999C31.8048 18.481 31.8207 18.3612 31.8374 18.2417C31.8566 18.1091 31.8743 17.9756 31.8902 17.842C31.9026 17.7314 31.9145 17.621 31.9248 17.5103C31.9402 17.3525 31.9518 17.194 31.9622 17.0352C31.968 16.9444 31.9751 16.854 31.9793 16.7633C31.9912 16.5102 31.999 16.256 31.999 16.0001C31.999 15.7129 31.9892 15.429 31.9738 15.1458C31.9687 15.0531 31.9609 14.9614 31.9541 14.8684C31.9407 14.6774 31.924 14.4869 31.9038 14.2975C31.8924 14.1929 31.8806 14.0888 31.8672 13.9847C31.8429 13.7983 31.8154 13.6131 31.7853 13.4287C31.7699 13.337 31.7567 13.2442 31.7403 13.1528C31.7358 13.1275 31.7325 13.102 31.7279 13.0773H31.7244C31.6784 12.8287 31.6297 12.5803 31.5724 12.3356H24.8788H21.5889C21.6048 12.5814 21.6131 12.8299 21.6257 13.0773H20.836C20.9565 14.9118 20.9649 16.7954 20.8568 18.6351H21.6432C21.6328 18.8576 21.6272 19.0817 21.6146 19.3035H24.9055H31.6559C31.7024 19.0825 31.7418 18.8589 31.7787 18.6351H31.7802C31.7823 18.6232 31.7833 18.6119 31.7851 18.5999Z" fill="#F1B91B"/>
<path d="M22.2768 13.0773H22.2695C22.2566 12.83 22.2483 12.5814 22.2326 12.3356H15.1818V0.0213623C14.9665 0.0322386 14.7541 0.0529104 14.5414 0.0721634V0.068583C14.5047 0.0720959 14.4689 0.0774327 14.4327 0.0809456C14.2839 0.0953347 14.1364 0.113034 13.9894 0.131206C13.8552 0.147892 13.7223 0.166808 13.5897 0.187006C13.4485 0.208219 13.3075 0.229431 13.1678 0.254696C13.0162 0.281718 12.8669 0.313334 12.7169 0.344409C12.5956 0.370147 12.4731 0.392643 12.3529 0.420948C12.1043 0.479045 11.8579 0.543222 11.6137 0.612939C11.5075 0.643474 11.4035 0.677116 11.2984 0.709677C11.1359 0.759465 10.9748 0.810739 10.8148 0.865526C10.7092 0.901668 10.6041 0.939566 10.4996 0.977937C10.3353 1.03806 10.1724 1.10122 10.0105 1.16689C9.91825 1.20377 9.82604 1.24039 9.73457 1.2793C9.52083 1.37002 9.31019 1.46575 9.10151 1.566C9.06537 1.58316 9.02903 1.59856 8.99288 1.61579C8.98937 1.61782 8.9866 1.6193 8.98302 1.62086V1.62133C8.7226 1.74867 8.46542 1.88229 8.2133 2.02348V12.3356H0.427216C0.369862 12.5805 0.321088 12.8285 0.27461 13.0773H0.27157C0.266503 13.102 0.263734 13.1276 0.259207 13.1529C0.242521 13.244 0.229146 13.337 0.214216 13.4287C0.184154 13.6132 0.156119 13.7983 0.13234 13.9848C0.118964 14.0889 0.107074 14.1929 0.0957251 14.2976C0.0749858 14.4871 0.0588402 14.6775 0.0449239 14.8685C0.0386413 14.9612 0.0305347 15.0529 0.0257384 15.1458C0.0103359 15.4292 0 15.7134 0 16.0005C0 16.2567 0.00783635 16.5108 0.0201989 16.7634C0.024725 16.8546 0.0315481 16.9456 0.0373578 17.0363C0.0476936 17.1947 0.0595833 17.3531 0.0747155 17.5105C0.0850514 17.6214 0.0964682 17.7325 0.109304 17.8424C0.125246 17.9761 0.142878 18.1089 0.161591 18.2416C0.178277 18.3616 0.194693 18.4814 0.214419 18.6003C0.215905 18.6122 0.217459 18.6236 0.219485 18.6355H0.220499C0.257856 18.8595 0.297038 19.0829 0.343246 19.3039H8.21303V29.9769C8.46515 30.1176 8.72233 30.2512 8.98275 30.3786V30.379C8.98377 30.3795 8.98478 30.38 8.98579 30.3805C9.03808 30.4063 9.09192 30.4288 9.14468 30.4535C9.33721 30.5452 9.53143 30.6342 9.72849 30.718C9.82523 30.7594 9.92251 30.7979 10.0195 30.837C10.1769 30.9006 10.3348 30.9618 10.4947 31.0207C10.6013 31.06 10.7089 31.0988 10.8168 31.1356C10.9752 31.19 11.1361 31.2408 11.2968 31.2905C11.4019 31.3226 11.5065 31.3567 11.6125 31.3872C11.8601 31.4577 12.1105 31.5234 12.3631 31.582C12.4765 31.6085 12.5919 31.6297 12.7064 31.6535C12.8602 31.686 13.0144 31.7181 13.1697 31.7457C13.3073 31.7705 13.446 31.7917 13.5847 31.8129C13.7199 31.8331 13.8555 31.8523 13.9917 31.8692C14.1372 31.8874 14.2832 31.9048 14.4297 31.919C14.4666 31.9231 14.5032 31.9283 14.5403 31.9319V31.9279C14.7531 31.947 14.9657 31.9683 15.1808 31.9791V19.3035H22.2573C22.2702 19.0815 22.2755 18.8574 22.2859 18.6351H22.2968C22.4057 16.7955 22.397 14.9119 22.2768 13.0773Z" fill="#FAC80D"/>
</svg>
