<svg width="32" height="32" viewBox="0 0 32 32" fill="none" xmlns="http://www.w3.org/2000/svg">
<path d="M18.7917 4.42103H27.0353C24.1642 1.68402 20.28 0 15.9998 0C18.0632 0 17.6918 1.74563 18.7917 4.42103Z" fill="#D32027"/>
<path d="M15.9998 31.9999C20.2799 31.9999 24.164 30.3159 27.0354 27.5789H18.0338C16.9343 30.2543 18.0634 31.9999 15.9998 31.9999Z" fill="#D32027"/>
<path d="M30.1146 23.5369H20.2229C19.9246 25.0196 19.5327 26.3913 19.0444 27.579H27.0353C28.2633 26.408 29.3072 25.0458 30.1146 23.5369Z" fill="#EFECEC"/>
<path d="M19.8023 8.46307H30.1145C29.3071 6.95415 28.2632 5.59196 27.0352 4.42102H18.6237C19.1118 5.6081 19.5037 6.98036 19.8023 8.46307Z" fill="#EFECEC"/>
<path d="M17.7813 23.5369H30.1146C31.3164 21.2908 31.9997 18.7256 31.9997 16C31.9997 13.2744 31.3164 10.7092 30.1146 8.46313H17.7813C18.7183 13.1205 18.7183 18.8792 17.7813 23.5369Z" fill="#163D68"/>
<path d="M20.7444 27.579H4.96466C7.83577 30.316 11.7199 32 15.9997 32C18.0635 31.9999 19.6449 30.2543 20.7444 27.579Z" fill="#E73B36"/>
<path d="M20.7444 4.42103C19.6444 1.74563 18.0632 0 15.9998 0C11.7203 0 7.83604 1.68402 4.96466 4.42103H20.7444Z" fill="#E73B36"/>
<path d="M20.7444 4.42102H4.96465C3.73663 5.59196 2.69277 6.95415 1.88535 8.46307H21.9228C21.6245 6.98036 21.2327 5.6081 20.7444 4.42102Z" fill="#F3F4F5"/>
<path d="M4.96464 27.579H20.7443C21.2327 26.3913 21.6245 25.0196 21.9228 23.5369H1.88547C2.69282 25.0458 3.73669 26.408 4.96464 27.579Z" fill="#F3F4F5"/>
<path d="M21.9228 8.46307H1.88548C0.683672 10.7092 0.000213623 13.2744 0.000213623 16C0.000213623 18.7256 0.683605 21.2908 1.88535 23.5369H21.9228C22.8599 18.8792 22.8599 13.1205 21.9228 8.46307Z" fill="#14477D"/>
</svg>
