<svg width="32" height="32" viewBox="0 0 32 32" fill="none" xmlns="http://www.w3.org/2000/svg">
<path d="M16 32C24.8366 32 32 24.8366 32 16C32 7.16344 24.8366 0 16 0C7.16344 0 0 7.16344 0 16C0 24.8366 7.16344 32 16 32Z" fill="#D80027"/>
<path d="M15.3449 13.0741L16.6577 14.8832L18.7838 14.1938L17.4689 16.0013L18.7815 17.8103L16.6562 17.1183L15.3414 18.9258L15.3428 16.6907L13.2174 15.9987L15.3435 15.3093L15.3449 13.0741Z" fill="#F0F0F0"/>
<path d="M11.7621 20.5217C9.26489 20.5217 7.24039 18.4972 7.24039 15.9999C7.24039 13.5027 9.26489 11.4782 11.7621 11.4782C12.5408 11.4782 13.2734 11.6751 13.913 12.0217C12.9096 11.0403 11.5373 10.4347 10.023 10.4347C6.94939 10.4347 4.45782 12.9263 4.45782 15.9999C4.45782 19.0734 6.94945 21.5651 10.023 21.5651C11.5374 21.5651 12.9096 20.9594 13.913 19.9781C13.2734 20.3248 12.5408 20.5217 11.7621 20.5217Z" fill="#F0F0F0"/>
</svg>
