<svg width="32" height="32" viewBox="0 0 32 32" fill="none" xmlns="http://www.w3.org/2000/svg">
<path d="M16 0V16H0C0 24.8533 7.14667 32 16 32C24.8533 32 32 24.8533 32 16C32 7.14667 24.8533 0 16 0Z" fill="#ED4C5C"/>
<path d="M16 0C7.14667 0 0 7.14667 0 16H16V0Z" fill="#2A5F9E"/>
<path d="M11.7333 9.75994L14.4 9.06661L11.7333 8.37328L13.7067 6.39994L11.04 7.09328L11.7333 4.42661L9.76 6.39994L9.06667 3.73328L8.37334 6.39994L6.4 4.42661L7.09334 7.09328L4.42667 6.39994L6.4 8.37328L3.73334 9.06661L6.4 9.75994L4.42667 11.7333L7.09334 11.0399L6.4 13.7066L8.37334 11.7333L9.06667 14.3999L9.76 11.7333L11.7333 13.7066L11.04 11.0399L13.7067 11.7333L11.7333 9.75994Z" fill="white"/>
<path d="M9.06667 12.1067C10.7456 12.1067 12.1067 10.7457 12.1067 9.06673C12.1067 7.38779 10.7456 6.02673 9.06667 6.02673C7.38773 6.02673 6.02667 7.38779 6.02667 9.06673C6.02667 10.7457 7.38773 12.1067 9.06667 12.1067Z" fill="#428BC1"/>
<path d="M9.06666 11.7334C10.5394 11.7334 11.7333 10.5395 11.7333 9.06669C11.7333 7.59393 10.5394 6.40002 9.06666 6.40002C7.5939 6.40002 6.39999 7.59393 6.39999 9.06669C6.39999 10.5395 7.5939 11.7334 9.06666 11.7334Z" fill="white"/>
</svg>
