<svg width="32" height="32" viewBox="0 0 32 32" fill="none" xmlns="http://www.w3.org/2000/svg">
<g clip-path="url(#clip0_55_532)">
<path d="M16 32C24.8366 32 32 24.8366 32 16C32 7.16344 24.8366 0 16 0C7.16344 0 0 7.16344 0 16C0 24.8366 7.16344 32 16 32Z" fill="#F0F0F0"/>
<path d="M4.68622 27.3138C-1.56215 21.0653 -1.56215 10.9347 4.68622 4.68628C4.68578 4.68697 13.913 16 13.913 16L4.68622 27.3138Z" fill="black"/>
<path d="M13.913 16L2.12204 8.0321C1.75648 8.66754 1.4341 9.33079 1.1571 10.0173L7.12641 16.0001L1.15729 21.9832C1.43404 22.6692 1.7561 23.332 2.12142 23.967L13.913 16Z" fill="#FFDA44"/>
<path d="M31.8646 13.9131H13.9127L4.68615 4.68652C3.6919 5.68077 2.82808 6.80521 2.12208 8.03215L10.0745 16L2.12146 23.9669C2.82746 25.1941 3.69165 26.319 4.68615 27.3135L13.9127 18.087H31.8646C31.9535 17.4038 32 16.7073 32 16C32 15.2927 31.9535 14.5962 31.8646 13.9131Z" fill="#6DA544"/>
<path d="M6.25861 28.6923C8.95667 30.7662 12.334 32 16 32C23.3924 32 29.6128 26.9862 31.4488 20.174H14.777L6.25861 28.6923Z" fill="#0052B4"/>
<path d="M31.4488 11.8261C29.6128 5.01381 23.3924 0 16 0C12.334 0 8.95667 1.23381 6.25861 3.30769L14.777 11.8261H31.4488Z" fill="#D80027"/>
</g>
<defs>
<clipPath id="clip0_55_532">
<rect width="32" height="32" fill="white"/>
</clipPath>
</defs>
</svg>
